<svg xmlns="http://www.w3.org/2000/svg" width="542" height="150" viewBox="0 0 542 150">
  <defs>
    <style>
      .cls-1 {
        fill: #514c4c;
      }

      .cls-1, .cls-2 {
        fill-rule: evenodd;
      }

      .cls-2 {
        fill: #2f8eef;
      }
    </style>
  </defs>
  <g id="logo-houla-dark">
    <path id="Forme_4" data-name="Forme 4" class="cls-1" d="M1414,51h24v57s7.68-22.146,35-21,36.56,19.546,37,35,0,75,0,75h-24V125s-0.42-17.557-21-18-26,19-26,19v71h-24Zm402-1h25V198h-25V50Zm49,67,23,3s3.98-15.4,24-14,18.98,11.511,19,16-0.62,8.586-15,10-56.94,4.089-55,34,26.51,33.7,35,34,24.81,1.027,37-18v15h23V117s-1.09-26.079-35-30S1869.56,99.264,1865,117Zm34,35c9.79-1.689,21.97-3.5,32-7,0.21,9.408,0,14.774,0,18,0,6.351-9.95,18.493-26,19-11.32.357-20-5.649-20-12S1884.98,154.534,1899,152Z" transform="translate(-1414 -50)"/>
    <path class="cls-2" d="M1616.08,153.774c5.41,7.607,16.02,25.02,16.02,25.02s-23.07,30.9-63.05,19.016-47.02-53.52-40.04-76.062,27.83-45.423,63.06-42.033c32.16,3.095,48.03,35.028,48.03,35.028s26.12,39.761,28.03,42.034,14.93,21.318,37.03,14.011a27.057,27.057,0,0,0,19.01-24.019V79.046h27.02s0.39,66.3,0,71.726-8.09,42.3-44.03,48.039c-34.7,5.335-53.9-16.027-60.05-25.021s-37.03-55.044-37.03-55.044-16.51-21.12-42.03-7.006c-19.22,10.626-14.52,33.818-12.01,42.034,3.03,7.86,14.69,26.656,41.03,18.015C1610.54,165.732,1611.35,161.043,1616.08,153.774Zm33.03-52.042,17.01,26.021,16.02-24.019s4.32-9.878-6.01-17.014-17.01,0-17.01,0Zm130.11,69.152A15.012,15.012,0,1,1,1764.2,185.9,15.011,15.011,0,0,1,1779.22,170.884Z" transform="translate(-1414 -50)"/>
  </g>
</svg>
