<svg xmlns="http://www.w3.org/2000/svg" viewBox="0 0 466 502" fill="none">
  <path fill-rule="evenodd" fill="#667eea" d="M425.746,225.447 L382.137,276.875 L318.859,223.219 L365.715,167.961 C390.969,138.180 387.887,115.985 367.040,98.308 C346.193,80.630 321.114,78.361 295.861,108.142 L234.489,180.519 C209.235,210.300 214.812,235.568 235.659,253.245 C244.437,260.689 253.656,264.685 263.271,264.613 L209.085,328.514 C200.384,323.451 191.705,317.280 183.083,309.969 C118.755,255.421 115.937,187.502 172.505,120.792 L226.807,56.754 C283.374,-9.956 350.841,-18.277 415.168,36.270 C479.496,90.818 482.314,158.737 425.746,225.447 ZM140.185,293.353 L105.117,335.382 C79.391,365.721 83.478,387.962 104.716,405.971 C125.953,423.979 148.563,424.376 174.289,394.038 L310.804,233.046 L373.908,286.556 L240.996,443.300 C183.369,511.259 116.460,521.280 50.928,465.711 C-14.603,410.143 -15.653,342.496 41.973,274.537 L124.624,177.718 C94.040,237.107 140.185,293.353 140.185,293.353 ZM442.239,406.313 C464.678,425.341 467.444,458.957 448.416,481.397 C429.388,503.836 395.772,506.602 373.333,487.574 C350.893,468.546 348.127,434.930 367.155,412.490 C386.183,390.051 419.799,387.285 442.239,406.313 Z"/>
</svg>
