<svg xmlns="http://www.w3.org/2000/svg" width="511" height="232" viewBox="0 0 511 232">
  <defs>
    <style>
      .cls-1 {
        fill: #2f8eef;
        fill-rule: evenodd;
      }
    </style>
  </defs>
  <g id="icon">
    <path class="cls-1" d="M2389.84,1216.08c10.31,14.51,30.54,47.72,30.54,47.72s-44,58.92-120.25,36.26-89.66-102.06-76.34-145.05,53.06-86.63,120.24-80.17c61.34,5.91,91.61,66.81,91.61,66.81s49.8,75.83,53.45,80.16,28.47,40.65,70.62,26.72c35.53-11.75,36.26-45.81,36.26-45.81V1073.57h51.53s0.74,126.45,0,136.79-15.43,80.67-83.98,91.61c-66.17,10.18-102.79-30.56-114.52-47.71s-70.61-104.98-70.61-104.98-31.48-40.28-80.17-13.36c-36.65,20.27-27.67,64.49-22.9,80.16,5.79,14.99,28.02,50.84,78.25,34.36C2379.27,1238.89,2380.81,1229.95,2389.84,1216.08Zm62.98-99.25,32.45,49.63,30.54-45.81s8.23-18.84-11.45-32.44-32.45,0-32.45,0Zm248.12,131.88a28.63,28.63,0,1,1-28.62,28.63A28.626,28.626,0,0,1,2700.94,1248.71Z" transform="translate(-2219 -1074)"/>
  </g>
</svg>
