<svg xmlns="http://www.w3.org/2000/svg" width="542" height="150" viewBox="0 0 542 150">
  <g transform="translate(0, 5)">
    <!-- Icon (blue) -->
    <g transform="translate(0, 0) scale(0.28)">
      <path fill-rule="evenodd" fill="#2f8eef" d="M425.746,225.447 L382.137,276.875 L318.859,223.219 L365.715,167.961 C390.969,138.18 387.887,115.985 367.04,98.308 C346.193,80.63 321.114,78.361 295.861,108.142 L234.489,180.519 C209.235,210.3 214.812,235.568 235.659,253.245 C244.437,260.689 253.656,264.685 263.271,264.613 L209.085,328.514 C200.384,323.451 191.705,317.28 183.083,309.969 C118.755,255.421 115.937,187.502 172.505,120.792 L226.807,56.754 C283.374,-9.956 350.841,-18.277 415.168,36.27 C479.496,90.818 482.314,158.737 425.746,225.447 ZM140.185,293.353 L105.117,335.382 C79.391,365.721 83.478,387.962 104.716,405.971 C125.953,423.979 148.563,424.376 174.289,394.038 L310.804,233.046 L373.908,286.556 L240.996,443.3 C183.369,511.259 116.46,521.28 50.928,465.711 C-14.603,410.143 -15.653,342.496 41.973,274.537 L124.624,177.718 C94.04,237.107 140.185,293.353 140.185,293.353 ZM442.239,406.313 C464.678,425.341 467.444,458.957 448.416,481.397 C429.388,503.836 395.772,506.602 373.333,487.574 C350.893,468.546 348.127,434.93 367.155,412.49 C386.183,390.051 419.799,387.285 442.239,406.313 Z"/>
    </g>
    <!-- Text "hou.la" -->
    <g transform="translate(145, 15) scale(0.56)">
      <path fill="#514c4c" fill-rule="evenodd" d="M2389.84,1216.08c10.31,14.51,30.54,47.72,30.54,47.72s-44,58.92-120.25,36.26-89.66-102.06-76.34-145.05,53.06-86.63,120.24-80.17c61.34,5.91,91.61,66.81,91.61,66.81s49.8,75.83,53.45,80.16,28.47,40.65,70.62,26.72c35.53-11.75,36.26-45.81,36.26-45.81V1073.57h51.53s0.74,126.45,0,136.79-15.43,80.67-83.98,91.61c-66.17,10.18-102.79-30.56-114.52-47.71s-70.61-104.98-70.61-104.98-31.48-40.28-80.17-13.36c-36.65,20.27-27.67,64.49-22.9,80.16,5.79,14.99,28.02,50.84,78.25,34.36C2379.27,1238.89,2380.81,1229.95,2389.84,1216.08Zm62.98-99.25,32.45,49.63,30.54-45.81s8.23-18.84-11.45-32.44-32.45,0-32.45,0Zm248.12,131.88a28.63,28.63,0,1,1-28.62,28.63A28.626,28.626,0,0,1,2700.94,1248.71Z" transform="translate(-2219 -1074)"/>
    </g>
  </g>
</svg>
